<svg width="26" height="22" viewBox="0 0 26 22" fill="none" xmlns="http://www.w3.org/2000/svg">
<path d="M25.5778 4.8221C25.6568 4.75638 25.7161 4.67001 25.749 4.57261C25.7819 4.47521 25.7871 4.37059 25.7641 4.27039C25.7411 4.17019 25.6907 4.07836 25.6185 4.00509C25.5464 3.93183 25.4554 3.88002 25.3555 3.85543L24.4778 3.63321C24.398 3.61323 24.3236 3.57577 24.26 3.52354C24.1964 3.4713 24.1453 3.40561 24.1102 3.33118C24.0751 3.25676 24.057 3.17548 24.0571 3.0932C24.0573 3.01093 24.0757 2.92971 24.1111 2.85543L24.6 1.86654C24.6462 1.77072 24.6639 1.66365 24.651 1.55806C24.6381 1.45247 24.5952 1.35279 24.5273 1.27088C24.4594 1.18897 24.3695 1.12827 24.2681 1.09599C24.1668 1.0637 24.0583 1.0612 23.9555 1.08876L21.7333 1.71099C21.6505 1.73514 21.5632 1.73968 21.4784 1.72425C21.3935 1.70882 21.3134 1.67385 21.2444 1.6221C20.2828 0.900863 19.1132 0.510986 17.9111 0.510986C16.4377 0.510986 15.0246 1.0963 13.9827 2.13817C12.9409 3.18004 12.3555 4.59312 12.3555 6.06654V6.46654C12.356 6.53479 12.3314 6.60082 12.2863 6.65206C12.2412 6.70329 12.1789 6.73613 12.1111 6.74432C8.98888 7.11099 5.99999 5.5221 2.77777 1.81099C2.70777 1.73379 2.61784 1.67739 2.51787 1.64798C2.41789 1.61858 2.31175 1.61731 2.2111 1.64432C2.12043 1.686 2.04266 1.75133 1.98596 1.83344C1.92926 1.91556 1.89573 2.01143 1.88888 2.11099C1.44383 3.93914 1.62377 5.86368 2.39999 7.57765C2.42296 7.62311 2.43298 7.67401 2.42897 7.72479C2.42496 7.77556 2.40707 7.82426 2.37725 7.86555C2.34743 7.90684 2.30683 7.93913 2.25989 7.95891C2.21295 7.97868 2.16148 7.98516 2.1111 7.97765L0.866658 7.73321C0.778282 7.719 0.687781 7.72636 0.60286 7.75465C0.517939 7.78294 0.441112 7.83134 0.378919 7.89571C0.316726 7.96009 0.271009 8.03854 0.245659 8.12438C0.220309 8.21023 0.216077 8.30093 0.233324 8.38876C0.329256 9.24148 0.61574 10.0617 1.07157 10.7887C1.5274 11.5157 2.1409 12.1309 2.86666 12.5888C2.91362 12.6115 2.95323 12.647 2.98094 12.6912C3.00866 12.7355 3.02336 12.7866 3.02336 12.8388C3.02336 12.8909 3.00866 12.9421 2.98094 12.9863C2.95323 13.0305 2.91362 13.066 2.86666 13.0888L2.27777 13.3221C2.20625 13.3508 2.14148 13.394 2.08757 13.449C2.03366 13.5041 1.99179 13.5698 1.96463 13.6419C1.93746 13.714 1.92558 13.7909 1.92976 13.8679C1.93393 13.9448 1.95407 14.02 1.98888 14.0888C2.31454 14.8013 2.80816 15.4243 3.42743 15.9043C4.0467 16.3842 4.77313 16.7068 5.54444 16.8443C5.59806 16.8638 5.64439 16.8993 5.67713 16.946C5.70988 16.9927 5.72744 17.0484 5.72744 17.1054C5.72744 17.1625 5.70988 17.2181 5.67713 17.2649C5.64439 17.3116 5.59806 17.3471 5.54444 17.3665C4.03373 17.9914 2.41251 18.305 0.777769 18.2888C0.630426 18.2593 0.477412 18.2896 0.352388 18.3729C0.227364 18.4563 0.140571 18.5859 0.111102 18.7332C0.0816336 18.8806 0.111904 19.0336 0.195253 19.1586C0.278603 19.2836 0.408204 19.3704 0.555547 19.3999C3.38615 20.7424 6.46797 21.4731 9.59999 21.5443C12.3549 21.5863 15.0609 20.8132 17.3778 19.3221C19.2836 18.0499 20.845 16.326 21.9229 14.3039C23.0008 12.2819 23.5617 10.0246 23.5555 7.73321V6.76654C23.5562 6.68586 23.5745 6.6063 23.609 6.53338C23.6435 6.46047 23.6936 6.39595 23.7555 6.34432L25.5778 4.8221Z" fill="#1E1F27"/>
</svg>
