<svg width="28" height="28" viewBox="0 0 28 28" fill="none" xmlns="http://www.w3.org/2000/svg">
<path d="M23.3332 4.50008C20.8332 2.00008 17.6665 0.666748 13.9998 0.666748C6.83317 0.666748 0.833171 6.66675 0.833171 13.8334C0.833171 16.1667 1.49984 18.5001 2.6665 20.5001L0.666504 27.3334L7.6665 25.5001C9.6665 26.5001 11.8332 27.1667 13.9998 27.1667C21.3332 27.1667 27.1665 21.1667 27.1665 14.0001C27.3332 10.3334 25.8332 7.00008 23.3332 4.50008ZM20.4998 18.6667C20.1665 19.5001 18.8332 20.1667 18.3332 20.1667C17.8332 20.3334 16.1665 20.1667 14.3332 19.3334C10.9998 17.8334 8.83317 14.5001 8.6665 14.3334C8.49984 14.1667 7.33317 12.5001 7.33317 11.0001C7.33317 9.50008 8.1665 8.50008 8.49984 8.16675C9.1665 7.50008 10.4998 7.66675 10.8332 8.33342C10.9998 9.00008 11.6665 10.6667 11.8332 10.8334C11.9998 11.0001 11.9998 11.6667 11.4998 12.0001C11.3332 12.0001 10.4998 12.6667 10.8332 13.1667C10.9998 13.5001 11.6665 14.5001 12.6665 15.5001C13.9998 16.6667 14.9998 17.0001 15.3332 17.1667C15.6665 17.3334 15.8332 17.3334 15.9998 17.0001C16.1665 16.8334 16.8332 16.0001 16.9998 15.6667C17.1665 15.3334 17.4998 15.3334 17.6665 15.5001C17.8332 15.6667 19.6665 16.3334 19.9998 16.5001C20.3332 16.8334 20.6665 16.8334 20.6665 17.0001C20.8332 17.1667 20.8332 17.8334 20.4998 18.6667Z" fill="#1E1F27"/>
</svg>
