<svg width="28" height="28" viewBox="0 0 28 28" fill="none" xmlns="http://www.w3.org/2000/svg">
<path d="M13.9998 18.0001C16.209 18.0001 17.9998 16.2092 17.9998 14.0001C17.9998 11.7909 16.209 10.0001 13.9998 10.0001C11.7907 10.0001 9.99984 11.7909 9.99984 14.0001C9.99984 16.2092 11.7907 18.0001 13.9998 18.0001Z" fill="#1E1F27"/>
<path fill-rule="evenodd" clip-rule="evenodd" d="M5.99984 0.666748C3.05432 0.666748 0.666504 3.05456 0.666504 6.00008V22.0001C0.666504 24.9456 3.05432 27.3334 5.99984 27.3334H21.9998C24.9454 27.3334 27.3332 24.9456 27.3332 22.0001V6.00008C27.3332 3.05456 24.9454 0.666748 21.9998 0.666748H5.99984ZM13.9998 20.6667C17.6817 20.6667 20.6665 17.682 20.6665 14.0001C20.6665 10.3182 17.6817 7.33342 13.9998 7.33342C10.3179 7.33342 7.33317 10.3182 7.33317 14.0001C7.33317 17.682 10.3179 20.6667 13.9998 20.6667ZM21.9998 6.00008C21.9998 6.73646 21.4029 7.33342 20.6665 7.33342C19.9301 7.33342 19.3332 6.73646 19.3332 6.00008C19.3332 5.2637 19.9301 4.66675 20.6665 4.66675C21.4029 4.66675 21.9998 5.2637 21.9998 6.00008Z" fill="#1E1F27"/>
</svg>
